<svg  xmlns="http://www.w3.org/2000/svg"  viewBox="0 0 5.2 5.2" >
<style type="text/css">
	.st0{fill:#FFFFFF;}
</style>
	<path class="st0" d="M5.2,1.5c0-0.3-0.1-0.5-0.1-0.6C5,0.7,4.9,0.6,4.8,0.4C4.6,0.3,4.5,0.2,4.3,0.2C4.1,0.1,4,0,3.7,0
		C3.4,0,3.3,0,2.6,0S1.8,0,1.5,0C1.3,0,1.1,0.1,0.9,0.1C0.7,0.2,0.6,0.3,0.5,0.4C0.3,0.6,0.2,0.7,0.2,0.9C0.1,1.1,0,1.3,0,1.5
		c0,0.3,0,0.4,0,1.1s0,0.8,0,1.1C0,4,0.1,4.1,0.2,4.3c0.1,0.2,0.2,0.3,0.3,0.5C0.6,4.9,0.7,5,0.9,5.1c0.2,0.1,0.4,0.1,0.6,0.1
		c0.3,0,0.4,0,1.1,0s0.8,0,1.1,0c0.3,0,0.5-0.1,0.6-0.1c0.3-0.1,0.6-0.4,0.8-0.8C5.1,4.1,5.2,4,5.2,3.7c0-0.3,0-0.4,0-1.1
		S5.2,1.8,5.2,1.5z M4.7,3.7c0,0.3-0.1,0.4-0.1,0.5C4.5,4.4,4.4,4.5,4.1,4.6C4,4.7,3.9,4.7,3.7,4.7c-0.3,0-0.4,0-1,0s-0.8,0-1,0
		c-0.3,0-0.4-0.1-0.5-0.1C1,4.6,0.9,4.5,0.8,4.4C0.7,4.4,0.6,4.2,0.6,4.1c0-0.1-0.1-0.2-0.1-0.5c0-0.3,0-0.4,0-1s0-0.8,0-1
		c0-0.3,0.1-0.4,0.1-0.5c0-0.1,0.1-0.2,0.2-0.3C0.9,0.7,1,0.6,1.1,0.6c0.1,0,0.2-0.1,0.5-0.1c0.3,0,0.4,0,1,0c0.7,0,0.8,0,1,0
		c0.3,0,0.4,0.1,0.5,0.1c0.1,0,0.2,0.1,0.3,0.2C4.5,0.9,4.6,1,4.6,1.1c0,0.1,0.1,0.2,0.1,0.5c0,0.3,0,0.4,0,1S4.7,3.4,4.7,3.7z"/>
	<path class="st0" d="M2.6,1.3c-0.7,0-1.3,0.6-1.3,1.3s0.6,1.3,1.3,1.3c0.7,0,1.3-0.6,1.3-1.3S3.3,1.3,2.6,1.3z M2.6,3.5
		c-0.5,0-0.9-0.4-0.9-0.9s0.4-0.9,0.9-0.9c0.5,0,0.9,0.4,0.9,0.9S3.1,3.5,2.6,3.5z"/>
	<path class="st0" d="M4.3,1.2c0,0.2-0.1,0.3-0.3,0.3c-0.2,0-0.3-0.1-0.3-0.3c0-0.2,0.1-0.3,0.3-0.3C4.2,0.9,4.3,1.1,4.3,1.2z"/>
</svg>
