
<svg  xmlns="http://www.w3.org/2000/svg" viewBox="0 0 48.3 15.6" >
<style type="text/css">
	.st0{fill:#FFFFFF;}
</style>
<title>logo</title>
<path class="st0" d="M36.1,12.6c-0.3,0.2-0.6,0.4-1,0.6c-0.6,0.4-1.4,0.7-2.2,0.7c-0.4,0-0.9,0-1.3,0c-0.7-0.1-1.1-0.6-1.3-1.2
	c-0.4-0.8-0.3-1.6,0-2.3c0.2-0.8,0.6-1.6,1.2-2.2c0.8-0.9,2-1.2,3.1-0.7c0.6,0.2,1.1,0.6,1.5,1.1c0.1-0.3,0.2-0.6,0.2-0.9
	c0.3-1.2,0.5-2.4,0.8-3.5c0.1-0.4,0.2-0.7,0.2-1.1c0-0.1-0.1-0.3-0.1-0.5c0-0.1-0.1-0.3-0.2-0.4c-0.2-0.6,0.5-1.3,1.2-1.2
	c0.7,0.1,1.1,0.5,1.2,1.3c0.1,0.4,0,0.8-0.1,1.2c-0.3,1.2-0.6,2.3-0.9,3.5c-0.2,0.7-0.2,1.5-0.3,2.3c-0.1,0.6-0.1,1.2-0.2,1.8
	c-0.1,1.1,0.2,2.2,0.8,3.1c0.3,0.4,0.2,0.6-0.2,0.9c-0.2,0.1-0.5,0.3-0.8,0.3c-0.2,0-0.4-0.1-0.5-0.2c-0.5-0.5-0.7-1.1-0.9-1.7
	C36.3,13.2,36.2,12.9,36.1,12.6z M33.3,12.6c0.3,0,0.9-0.2,1.3-0.5c0.3-0.2,0.5-0.5,0.6-0.9c0.1-0.4,0.1-0.9,0-1.3
	c0-0.3-0.2-0.6-0.4-0.8c-0.3-0.3-0.9-0.4-1.3-0.2c-0.4,0.2-0.7,0.5-0.9,0.9c-0.3,0.6-0.4,1.2-0.4,1.9C32.3,12.3,32.5,12.6,33.3,12.6
	z"/>
<path class="st0" d="M15.6,10.3c0-1.1,0.1-2,0.2-3c0.1-0.9,0.3-1.8,0.6-2.7c0.2-0.6,0.2-1.2,0.3-1.8c0-0.4,0-0.7,0.1-1.1
	c0-0.1,0.1-0.2,0.2-0.3c0.3-0.3,0.7-0.3,1.1-0.2c0.2,0.1,0.4,0.3,0.5,0.5c0.1,0.5,0.2,1,0.3,1.5c0.1,0.4,0.1,0.7,0.1,1.1
	c0.1,0.8-0.1,1.5-0.3,2.2c-0.5,1.7-0.7,3.5-0.6,5.3c0,0.2,0,0.3,0.1,0.5c0.1,0.2,0.2,0.3,0.4,0.3c1.4-0.1,2.8-0.3,4.3-0.4
	c0.3,0,0.5,0,0.8,0c0.4,0,0.5,0.4,0.3,0.7c-0.1,0.1-0.3,0.2-0.5,0.3c-0.7,0.1-1.4,0.2-2.1,0.4c-1.1,0.2-2.2,0.4-3.2,0.6
	c-0.4,0.1-0.8,0.1-1.2-0.1c-0.5-0.2-0.8-0.6-0.9-1.1C15.7,12,15.5,11.1,15.6,10.3z"/>
<path class="st0" d="M46,5.5c0.3,0,0.5,0,0.8,0.1c0.5,0.1,0.9,0.3,1.2,0.6c0.1,0.1,0.2,0.3,0.2,0.4c0.1,0.4,0,0.7-0.3,0.8
	c-0.3,0.1-0.8,0-0.9-0.3c-0.1-0.2-0.3-0.3-0.5-0.4c-0.7-0.2-1.4-0.1-2.1,0.2c-0.3,0.1-0.7,0.3-1,0.5c-0.4,0.3-0.4,0.6,0,0.9
	c0.4,0.2,0.8,0.4,1.1,0.6c0.6,0.4,1.2,0.8,1.7,1.2c0.3,0.2,0.5,0.5,0.6,0.9c0.2,0.6,0,1.2-0.4,1.6c-0.5,0.5-1,1-1.5,1.4
	c-0.6,0.5-1.2,1-1.9,1.3c-0.3,0.1-0.5,0.3-0.8,0.4c-0.3,0.1-0.8,0-1-0.3c-0.2-0.3-0.3-0.7-0.1-1c0.1-0.2,0.3-0.5,0.5-0.6
	c0.2-0.2,0.6-0.3,0.8-0.5c0.5-0.3,1-0.6,1.4-1c0.2-0.2,0.4-0.4,0.5-0.6c0.2-0.3,0.2-0.5-0.1-0.7c-0.4-0.4-0.9-0.8-1.4-1
	c-0.3-0.2-0.7-0.4-1-0.6c-0.5-0.3-0.7-0.6-0.5-1.5c0.1-0.5,0.4-0.9,0.8-1.2c0.7-0.5,1.4-0.8,2.2-0.9C44.8,5.6,45.4,5.5,46,5.5
	L46,5.5z"/>
<path class="st0" d="M26.9,5.4c0.5,0,1,0.3,1.2,0.7c0,0.1,0,0.1,0.1,0.2c0.4,0.4,0.3,0.9,0.2,1.4c-0.2,0.8-0.3,1.6-0.5,2.4
	c-0.1,0.5-0.4,1-0.6,1.5c-0.2,0.5-0.3,1-0.5,1.5c-0.1,0.3,0,0.4,0.3,0.4c0.4,0.1,0.4,0.2,0.2,0.6c-0.3,0.5-1.2,0.7-1.7,0.5
	c-0.3-0.1-0.5-0.4-0.6-0.8c0,0,0-0.1,0-0.1c-0.3-0.9,0-1.7,0.2-2.5c0.2-0.9,0.6-1.9,0.7-2.9c0-0.5,0-1,0-1.5c0-0.2,0-0.4,0.1-0.6
	C26.2,5.7,26.4,5.3,26.9,5.4z"/>
<path class="st0" d="M9.7,3.1c0.4-0.3,0.8-0.5,1.1-0.8c0,0,0.2,0,0.2,0c0.3,0.1,0.5,0.3,0.8,0.4l0-0.1L11,2.2c0.3-0.2,0.7-0.3,1-0.5
	c0.1,0,0.1,0,0.2,0c0.3,0.1,0.5,0.3,0.8,0.4l0,0l-0.8-0.5l1.6-0.5c-0.6,0-1.2,0.2-1.8,0.4c0-0.2-0.1-0.3-0.1-0.4l0,0
	c0,0.1,0,0.2,0,0.3c0,0.1,0,0.2-0.1,0.2c-0.3,0.1-0.6,0.3-1,0.5l-0.1-0.4h0c0,0.1,0,0.2,0,0.2c0.1,0.2,0,0.3-0.2,0.4
	C10.2,2.5,9.9,2.7,9.6,3L9.6,2.7l0,0c0,0.1,0,0.1,0,0.2c0,0.2,0,0.3-0.1,0.4C9,3.5,8.7,3.8,8.3,4.1c0-0.1,0-0.3,0-0.5
	c0.1-0.5,0.4-0.9,0.8-1.2c1-1.1,2.3-1.9,3.7-2.2C13.5,0,14.1,0,14.7,0.2c0.6,0.2,0.8,0.6,0.6,1.2c-0.2,0.5-0.5,0.8-0.9,1
	C13.1,3,12,3.7,10.8,4.4c-0.5,0.3-0.9,0.4-1.5,0.5c-0.3,0-0.6,0-0.8-0.3c-0.1-0.1-0.1-0.2,0-0.3C8.9,4,9.2,3.7,9.5,3.4
	c0.1-0.1,0.2-0.1,0.3-0.1c0.3,0.1,0.5,0.3,0.8,0.4C10.4,3.4,10,3.3,9.7,3.1z"/>
<path class="st0" d="M7.3,4.1C7.1,4,6.8,3.9,6.6,3.7C6.5,3.6,6.5,3.5,6.5,3.4c0-0.1,0-0.3,0-0.4l-0.1,0c0,0.2-0.1,0.4-0.1,0.6
	C6.1,3.5,6,3.4,5.8,3.3C5.6,3.2,5.3,3.2,5.1,3.1C5,3.1,4.9,3,4.9,2.8c0-0.2,0-0.4,0-0.5l-0.1,0c0,0.2-0.1,0.5-0.1,0.7
	C3.9,2.9,3.1,2.9,2.4,3.1h2.1L4,3.6L4,3.7c0.1-0.1,0.2-0.1,0.2-0.2c0.3-0.2,0.7-0.4,1.1-0.2c0.3,0.1,0.6,0.2,0.9,0.4
	C6,3.9,5.7,4,5.6,4.3C5.9,4.2,6.1,4,6.3,3.9c0.1-0.1,0.3-0.1,0.4,0c0.2,0.1,0.4,0.3,0.6,0.4C7.2,4.6,6.9,4.7,6.7,4.8
	C6.2,5,5.6,4.9,5.1,4.8C4.5,4.6,3.9,4.4,3.3,4.3c-0.5-0.1-1,0-1.4,0c-0.4,0-0.7-0.1-1.1-0.2C0.7,4.1,0.6,4,0.5,4
	C0,3.7-0.1,3.2,0.3,2.8C0.7,2.6,1,2.4,1.4,2.2c1.4-0.6,2.9-0.7,4.3,0c0.6,0.3,1.2,0.7,1.5,1.3C7.3,3.7,7.3,3.9,7.3,4.1L7.3,4.1z"/>
<path class="st0" d="M26.6,1.9C27.3,2,27.8,2,28.4,2c0.1,0,0.2,0,0.3,0.1c0.4,0.1,0.5,0.2,0.4,0.6c0,0.3-0.1,0.4-0.5,0.5
	c-0.6,0-1.1,0.1-1.7,0.1c-0.3,0-0.7,0.2-1,0.3c-0.5,0.2-1,0.2-1.5,0.1C24.1,3.6,24,3.3,24,3c0-0.4,0.2-0.7,0.5-0.8
	C24.9,2.1,25.3,2,25.7,2C26,1.9,26.4,1.9,26.6,1.9z"/>
<path class="st0" d="M7.9,4.6c0,0.1,0,0.2,0,0.2c-0.6,1-0.6,2-0.5,3.1c0.2,1.3,0.4,2.6,0.6,3.9c0.1,0.8,0.2,1.5,0.2,2.3
	c0,0.2-0.2,0.5-0.4,0.5c-0.2,0-0.4-0.2-0.4-0.4c0,0,0,0,0,0c0.1-1.8-0.2-3.5-0.4-5.3C6.8,7.9,6.7,7,6.9,6.1c0.1-0.5,0.3-1,0.7-1.4
	C7.6,4.7,7.7,4.6,7.9,4.6L7.9,4.6z"/>
</svg>
