<?xml version="1.0" encoding="utf-8"?>
<!-- Generator: Adobe Illustrator 22.0.1, SVG Export Plug-In . SVG Version: 6.00 Build 0)  -->
<svg version="1.1" id="레이어_1" xmlns="http://www.w3.org/2000/svg" xmlns:xlink="http://www.w3.org/1999/xlink" x="0px"
	 y="0px" viewBox="0 0 185 55" style="enable-background:new 0 0 185 55;" xml:space="preserve">
<style type="text/css">
	.st0{fill:#CC0000;}
	.st1{fill:#0095F6;}
	.st2{fill:#FBE4D5;}
	.st3{fill:#0A0B0B;}
	.st4{fill:#720808;}
	.st5{fill:#248D3A;}
	.st6{fill:#93C86B;}
	.st7{fill:#E41A16;}
	.st8{fill:#0A527A;}
	.st9{fill:#FFFFFF;}
	.st10{font-family:'NotoSansKR-Medium-KSCpc-EUC-H';}
	.st11{font-size:14px;}
</style>
<path class="st1" d="M185,55H20C9,55,0,46,0,35v0c0-11,9-20,20-20h165V55z"/>
<ellipse class="st2" cx="21.6" cy="35" rx="16.4" ry="15.1"/>
<g>
	<defs>
		<ellipse id="SVGID_3_" cx="21.6" cy="35" rx="16.4" ry="15.1"/>
	</defs>
	<clipPath id="SVGID_2_">
		<use xlink:href="#SVGID_3_"  style="overflow:visible;"/>
	</clipPath>
</g>
<rect x="25" y="31.6" class="st3" width="1.7" height="4.6"/>
<rect x="16.5" y="31.6" class="st3" width="1.7" height="4.6"/>
<path class="st8" d="M14.4,29.3c0,0,0.9,0.9,2.1,0.9s2.1-0.4,2.1-0.9c0-0.5-0.9-0.9-2.1-0.9S14.4,29.3,14.4,29.3z"/>
<path class="st8" d="M28.8,29.3c0,0-0.9,0.9-2.1,0.9c-1.1,0-2.1-0.4-2.1-0.9c0-0.5,0.9-0.9,2.1-0.9C27.8,28.4,28.8,29.3,28.8,29.3z"
	/>
<g>
	<g id="XMLID_1_">
		<g>
			<path class="st5" d="M20.5,6.6c1.2,1.6,1.1,9.2,1.1,9.2l0,0.1c-0.6,0.3-1,0-1,0l0-0.1c0.2-1.7-0.7-9.1-0.7-9.1
				c-0.2-0.5-1.6-0.1-1.6-0.1c-3.8,0.7-6.8-2.2-7-2.7c-0.2-0.5-0.9-1.3-0.7-2.3c0.3-1,2.8-1.2,3.7-0.7C15.3,1.4,16,1.7,16,1.7
				c2.7,0.5,4,3.9,4,3.9s1.3-3.5,5.5-3.6c0,0,3,0.1,3.2,0.9c0.2,0.8,0.1,1.4-0.2,1.6c-0.3,0.2-1.6,1.1-1.9,1.6
				C26.2,6.5,23.8,8.5,20.5,6.6L20.5,6.6z"/>
		</g>
	</g>
	<g>
		<path class="st6" d="M19.4,5.4c-0.2-0.7-0.8-1.2-1.4-1.7c-0.6-0.4-1.3-0.8-2-1.1c-1.4-0.6-2.8-1-4.2-1.4c0.7,0.1,1.5,0.3,2.2,0.5
			c0.7,0.2,1.4,0.5,2.1,0.7c0.7,0.3,1.4,0.7,2,1.1C18.7,4.1,19.3,4.7,19.4,5.4z"/>
	</g>
	<g>
		<path class="st6" d="M20.2,5.9c0.7-1.3,1.9-2.4,3.2-3c0.7-0.3,1.4-0.5,2.2-0.4c0.8,0,1.5,0.1,2.2,0.3c-0.7-0.1-1.5-0.2-2.2-0.2
			c-0.7,0-1.4,0.2-2.1,0.5c-0.7,0.3-1.3,0.7-1.9,1.1C21.1,4.8,20.6,5.3,20.2,5.9z"/>
	</g>
	<g>
		<path class="st6" d="M20.9,4.9c0.5-0.3,1.1-0.3,1.7-0.3c0.3,0,0.6,0.1,0.9,0.2c0.3,0.1,0.5,0.2,0.8,0.3c-0.6-0.1-1.1-0.2-1.7-0.3
			c-0.3,0-0.6-0.1-0.8-0.1C21.5,4.8,21.2,4.8,20.9,4.9z"/>
	</g>
	<g>
		<path class="st6" d="M22.6,3.5c0.7-0.2,1.4-0.2,2.1-0.1c0.7,0.1,1.4,0.3,2,0.6c-0.7-0.1-1.4-0.3-2.1-0.4C24,3.5,23.3,3.5,22.6,3.5
			z"/>
	</g>
	<g>
		<path class="st6" d="M17.6,3.4c-0.3,0-0.6,0.1-0.9,0.2c-0.3,0.1-0.6,0.1-0.8,0.2c-0.6,0.2-1.1,0.4-1.5,0.8C14.5,4.3,14.7,4,15,3.9
			c0.3-0.2,0.5-0.3,0.8-0.4C16.4,3.3,17,3.3,17.6,3.4z"/>
	</g>
	<g>
		<path class="st6" d="M15.2,2.2c-1.1,0-2.1-0.1-3,0.4c0.2-0.2,0.4-0.3,0.7-0.4C13.1,2.1,13.4,2,13.6,2C14.2,2,14.7,2,15.2,2.2z"/>
	</g>
</g>
<path class="st7" d="M24.3,38c-0.1-0.1-0.1-0.1-0.2,0c-0.4,0.4-0.8,0.6-1.2,0.6c-0.6,0-1-0.5-1-0.6c0,0,0,0,0,0c0,0,0,0,0,0
	c0,0,0,0,0,0c0,0,0,0,0,0c0,0,0,0,0,0c0,0,0,0,0,0c0,0,0,0,0,0c0,0,0,0,0,0c0,0,0,0,0,0c0,0,0,0,0,0c0,0,0,0,0,0c0,0,0,0,0,0
	c-0.4,0.4-0.8,0.6-1.2,0.6c-0.6,0-1-0.5-1-0.6c0-0.1-0.1-0.1-0.2,0c-0.1,0-0.1,0.1,0,0.2c0,0,0.5,0.6,1.2,0.7c0,0,0.1,0,0.1,0
	c0.4,0,0.8-0.2,1.2-0.5c0.2,0.2,0.6,0.5,1.1,0.5c0,0,0.1,0,0.1,0c0.5,0,0.9-0.2,1.3-0.6C24.4,38.1,24.4,38,24.3,38z"/>
<text transform="matrix(1 0 0 1 50.6665 39.7672)" class="st9 st10 st11">Instagram 바로가기</text>
</svg>
