<?xml version="1.0" encoding="utf-8"?>
<!-- Generator: Adobe Illustrator 22.0.1, SVG Export Plug-In . SVG Version: 6.00 Build 0)  -->
<svg version="1.1" id="레이어_1" xmlns="http://www.w3.org/2000/svg" xmlns:xlink="http://www.w3.org/1999/xlink" x="0px"
	 y="0px" viewBox="0 0 6.3 4.8" style="enable-background:new 0 0 6.3 4.8;" xml:space="preserve">
<style type="text/css">
	.st0{fill:#FFFFFF;}
</style>
<g>
	<path class="st0" d="M2.6,1.3c-0.1-0.1-0.3,0-0.3,0.2v1.8c0,0.2,0.2,0.2,0.3,0.2l1.5-0.9c0.1-0.1,0.1-0.3,0-0.3L2.6,1.3z M2.7,3
		V1.9l1,0.6L2.7,3z"/>
	<path class="st0" d="M5.3,0.1C4,0,2.3,0,1.1,0.1c-0.5,0.1-0.9,0.5-1,1C0,2,0,2.8,0.2,3.8c0.1,0.5,0.5,0.9,1,1
		c0.6,0.1,1.3,0.1,2.1,0.1c0.7,0,1.5,0,2.1-0.1c0.5-0.1,0.9-0.5,1-1c0.2-0.9,0.2-1.7,0-2.7C6.1,0.6,5.7,0.2,5.3,0.1L5.3,0.1z
		 M5.8,3.7C5.8,4,5.5,4.3,5.2,4.3c-1.2,0.2-2.8,0.2-4,0C0.8,4.3,0.6,4,0.5,3.7C0.4,2.8,0.4,2,0.5,1.2c0.1-0.3,0.3-0.6,0.6-0.6
		c0.6-0.1,1.3-0.1,2-0.1c0.7,0,1.4,0,2,0.1c0.3,0,0.6,0.3,0.6,0.6C6,2,6,2.8,5.8,3.7L5.8,3.7z"/>
</g>
</svg>
