<?xml version="1.0" encoding="utf-8"?>
<!-- Generator: Adobe Illustrator 22.0.1, SVG Export Plug-In . SVG Version: 6.00 Build 0)  -->
<svg version="1.1" id="레이어_1" xmlns="http://www.w3.org/2000/svg" xmlns:xlink="http://www.w3.org/1999/xlink" x="0px"
	 y="0px" viewBox="0 0 175 55" style="enable-background:new 0 0 175 55;" xml:space="preserve">
<style type="text/css">
	.st0{fill:#CC0000;}
	.st1{fill:#0095F6;}
	.st2{fill:#FBE4D5;}
	.st3{fill:#0A0B0B;}
	.st4{fill:#720808;}
	.st5{fill:#248D3A;}
	.st6{fill:#93C86B;}
	.st7{fill:#E41A16;}
	.st8{fill:#0A527A;}
	.st9{fill:#FFFFFF;}
	.st10{font-family:'NotoSansKR-Medium-KSCpc-EUC-H';}
	.st11{font-size:14px;}
</style>
<path class="st0" d="M175,55H20C9,55,0,46,0,35v0c0-11,9-20,20-20h155V55z"/>
<ellipse class="st2" cx="21" cy="35" rx="16.4" ry="15.1"/>
<g>
	<defs>
		<ellipse id="SVGID_1_" cx="21" cy="35" rx="16.4" ry="15.1"/>
	</defs>
	<clipPath id="SVGID_2_">
		<use xlink:href="#SVGID_1_"  style="overflow:visible;"/>
	</clipPath>
</g>
<rect x="24.4" y="31.6" class="st3" width="1.7" height="4.6"/>
<rect x="15.9" y="31.6" class="st3" width="1.7" height="4.6"/>
<path class="st4" d="M13.9,29.3c0,0,0.9,0.9,2.1,0.9s2.1-0.4,2.1-0.9c0-0.5-0.9-0.9-2.1-0.9S13.9,29.3,13.9,29.3z"/>
<path class="st4" d="M28.2,29.3c0,0-0.9,0.9-2.1,0.9s-2.1-0.4-2.1-0.9c0-0.5,0.9-0.9,2.1-0.9S28.2,29.3,28.2,29.3z"/>
<g>
	<g id="XMLID_8_">
		<g>
			<path class="st5" d="M19.9,6.4c1.2,1.6,1.1,9.2,1.1,9.2l0,0.1c-0.6,0.3-1,0-1,0l0-0.1c0.2-1.7-0.7-9.1-0.7-9.1
				c-0.2-0.5-1.6-0.1-1.6-0.1C14,7,11,4.1,10.8,3.6c-0.2-0.5-0.9-1.3-0.7-2.3c0.3-1,2.8-1.2,3.7-0.7c0.9,0.5,1.6,0.8,1.6,0.8
				c2.7,0.5,4,3.9,4,3.9s1.3-3.5,5.5-3.6c0,0,3,0.1,3.2,0.9c0.2,0.8,0.1,1.4-0.2,1.6c-0.3,0.2-1.6,1.1-1.9,1.6S23.3,8.2,19.9,6.4
				L19.9,6.4z"/>
		</g>
	</g>
	<g>
		<path class="st6" d="M18.9,5.2c-0.2-0.7-0.8-1.2-1.4-1.7c-0.6-0.4-1.3-0.8-2-1.1c-1.4-0.6-2.8-1-4.2-1.4c0.7,0.1,1.5,0.3,2.2,0.5
			c0.7,0.2,1.4,0.5,2.1,0.7c0.7,0.3,1.4,0.7,2,1.1C18.2,3.8,18.8,4.4,18.9,5.2z"/>
	</g>
	<g>
		<path class="st6" d="M19.6,5.6c0.7-1.3,1.9-2.4,3.2-3c0.7-0.3,1.4-0.5,2.2-0.4c0.8,0,1.5,0.1,2.2,0.3c-0.7-0.1-1.5-0.2-2.2-0.2
			c-0.7,0-1.4,0.2-2.1,0.5c-0.7,0.3-1.3,0.7-1.9,1.1C20.5,4.5,20,5,19.6,5.6z"/>
	</g>
	<g>
		<path class="st6" d="M20.4,4.6c0.5-0.3,1.1-0.3,1.7-0.3c0.3,0,0.6,0.1,0.9,0.2c0.3,0.1,0.5,0.2,0.8,0.3c-0.6-0.1-1.1-0.2-1.7-0.3
			c-0.3,0-0.6-0.1-0.8-0.1C21,4.5,20.7,4.5,20.4,4.6z"/>
	</g>
	<g>
		<path class="st6" d="M22.1,3.2C22.8,3,23.5,3,24.2,3.1c0.7,0.1,1.4,0.3,2,0.6c-0.7-0.1-1.4-0.3-2.1-0.4
			C23.5,3.2,22.8,3.2,22.1,3.2z"/>
	</g>
	<g>
		<path class="st6" d="M17,3.1c-0.3,0-0.6,0.1-0.9,0.2c-0.3,0.1-0.6,0.1-0.8,0.2c-0.6,0.2-1.1,0.4-1.5,0.8c0.2-0.3,0.4-0.5,0.6-0.6
			c0.3-0.2,0.5-0.3,0.8-0.4C15.8,3.1,16.4,3,17,3.1z"/>
	</g>
	<g>
		<path class="st6" d="M14.7,2c-1.1,0-2.1-0.1-3,0.4C11.8,2.1,12,2,12.3,1.9c0.3-0.1,0.5-0.1,0.8-0.2C13.6,1.7,14.2,1.8,14.7,2z"/>
	</g>
</g>
<path class="st7" d="M23.8,38c-0.1-0.1-0.1-0.1-0.2,0c-0.4,0.4-0.8,0.6-1.2,0.6c-0.6,0-1-0.5-1-0.6c0,0,0,0,0,0c0,0,0,0,0,0
	c0,0,0,0,0,0c0,0,0,0,0,0c0,0,0,0,0,0c0,0,0,0,0,0c0,0,0,0,0,0c0,0,0,0,0,0c0,0,0,0,0,0c0,0,0,0,0,0c0,0,0,0,0,0c0,0,0,0,0,0
	c-0.4,0.4-0.8,0.6-1.2,0.6c-0.6,0-1-0.5-1-0.6c0-0.1-0.1-0.1-0.2,0c-0.1,0-0.1,0.1,0,0.2c0,0,0.5,0.6,1.2,0.7c0,0,0.1,0,0.1,0
	c0.4,0,0.8-0.2,1.2-0.5c0.2,0.2,0.6,0.5,1.1,0.5c0,0,0.1,0,0.1,0c0.5,0,0.9-0.2,1.3-0.6C23.8,38.1,23.8,38,23.8,38z"/>
<text transform="matrix(1 0 0 1 50.8442 39.7667)" class="st9 st10 st11">YouTube 바로가기</text>
</svg>
